<svg xmlns="http://www.w3.org/2000/svg" width="752pt" height="752pt" version="1.1" viewBox="50 50 652 652">
  <g fill="#61c9ef">
    <path d="m447.34 588.96h-256.33v-425.93h236.79v67.559c0 1.9609 0.77734 3.8438 2.1641 5.2305 1.3906 1.3906 3.2734 2.168 5.2344 2.168h66.004v212.59c0 4.0859 3.3125 7.3984 7.4023 7.3984 4.0859 0 7.3984-3.3125 7.3984-7.3984v-219.33-0.66406c0.050782-2.3203-1.0586-4.5117-2.9609-5.8477l-72.441-73.996c-1.4453-1.3945-3.3945-2.1406-5.4023-2.0703h-251.59c-4.0859 0-7.3984 3.3125-7.3984 7.3984v440.28c0 1.9648 0.77734 3.8477 2.1641 5.2344 1.3906 1.3867 3.2734 2.168 5.2344 2.168h263.73c2.1953 0.5 4.4961-0.027344 6.2578-1.4297 1.7578-1.4062 2.7852-3.5352 2.7852-5.7852 0-2.2539-1.0273-4.3828-2.7852-5.7852-1.7617-1.4062-4.0625-1.9297-6.2578-1.4297zm-4.7383-414.98 48.691 49.355h-48.691z"/>
    <path fill="#fff" d="m508.46 469.46c-17.641 0.097656-34.523 7.1914-46.941 19.723-12.414 12.531-19.352 29.477-19.285 47.117 0.0625 17.645 7.125 34.539 19.637 46.977 12.508 12.441 29.441 19.41 47.082 19.375 17.641-0.03125 34.547-7.0625 47.012-19.547 12.461-12.488 19.461-29.406 19.461-47.047-0.11719-17.691-7.2188-34.621-19.766-47.094-12.543-12.477-29.508-19.484-47.199-19.504zm0 119.5c-13.934 0-27.297-5.5352-37.152-15.387-9.8516-9.8555-15.387-23.219-15.387-37.152 0-13.934 5.5352-27.297 15.387-37.148 9.8555-9.8516 23.219-15.387 37.152-15.387 13.934 0 27.297 5.5352 37.148 15.387 9.8516 9.8516 15.387 23.215 15.387 37.148-0.019532 13.93-5.5586 27.281-15.406 37.129-9.8516 9.8477-23.203 15.391-37.129 15.41z"/>
    <path fill="#fff" d="m524 516.6-22.199 24.789-9.25-8.0664c-3.0469-1.7031-6.8711-1.0469-9.1719 1.5781-2.3008 2.6211-2.457 6.5-0.375 9.2969l14.801 12.801v0.003906c3.0078 2.4492 7.4023 2.1602 10.062-0.66797l27.156-30.043c2.0898-3.0859 1.5547-7.2422-1.2422-9.7031-2.7969-2.457-6.9883-2.4531-9.7812 0.011718z"/>
    <path d="m237.04 316.8c-6.9531-0.019532-13.625 2.7227-18.555 7.6289-4.9258 4.9023-7.7031 11.562-7.7148 18.516s2.7383 13.625 7.6484 18.547c4.9062 4.9219 11.57 7.6914 18.523 7.6992 6.9492 0.003907 13.621-2.7539 18.539-7.6641 4.918-4.9141 7.6797-11.582 7.6797-18.531 0-6.9375-2.75-13.586-7.6445-18.496-4.8984-4.9102-11.543-7.6797-18.477-7.6992zm0 37.812c-4.7344 0-9.0039-2.8594-10.809-7.2344-1.8047-4.3789-0.79297-9.4141 2.5664-12.75 3.3594-3.3398 8.4023-4.3203 12.77-2.4883 4.3633 1.832 7.1953 6.1172 7.1641 10.855 0.019532 3.1055-1.207 6.0898-3.4023 8.2891-2.1953 2.1953-5.1836 3.4219-8.2891 3.4023z"/>
    <path d="m283.5 334.19h46.473c4.0859 0 7.3984-3.3125 7.3984-7.3984 0-4.0859-3.3125-7.3984-7.3984-7.3984h-46.473c-4.0859 0-7.3984 3.3125-7.3984 7.3984 0 4.0859 3.3125 7.3984 7.3984 7.3984z"/>
    <path d="m415.66 351.88h-132.16c-4.0859 0-7.3984 3.3125-7.3984 7.3984 0 4.0859 3.3125 7.4023 7.3984 7.4023h132.16c4.0859 0 7.3984-3.3164 7.3984-7.4023 0-4.0859-3.3125-7.3984-7.3984-7.3984z"/>
    <path d="m237.04 418.03c-6.9297 0-13.57 2.7539-18.469 7.6523-4.8984 4.8984-7.6523 11.543-7.6523 18.469 0 6.9297 2.7539 13.57 7.6523 18.469 4.8984 4.9023 11.539 7.6523 18.469 7.6523 6.9258 0 13.57-2.75 18.469-7.6523 4.8984-4.8984 7.6523-11.539 7.6523-18.469-0.019531-6.9219-2.7773-13.555-7.6719-18.449s-11.527-7.6523-18.449-7.6719zm0 37.738c-6.0781-0.48438-10.762-5.5586-10.762-11.652 0-6.0977 4.6836-11.172 10.762-11.656 3.25-0.25781 6.4648 0.85156 8.8594 3.0664 2.3984 2.2109 3.7617 5.3242 3.7617 8.5898 0 3.2617-1.3633 6.375-3.7617 8.5898-2.3945 2.2109-5.6094 3.3242-8.8594 3.0625z"/>
    <path d="m283.5 435.2h46.473c4.0859 0 7.3984-3.3125 7.3984-7.3984 0-4.0898-3.3125-7.4023-7.3984-7.4023h-46.473c-4.0859 0-7.3984 3.3125-7.3984 7.4023 0 4.0859 3.3125 7.3984 7.3984 7.3984z"/>
    <path d="m415.66 452.96h-132.16c-4.0859 0-7.3984 3.3125-7.3984 7.4023 0 4.0859 3.3125 7.3984 7.3984 7.3984h132.16c4.0859 0 7.3984-3.3125 7.3984-7.3984 0-4.0898-3.3125-7.4023-7.3984-7.4023z"/>
    <path d="m237.04 215.8c-6.9297 0-13.57 2.7539-18.469 7.6523-4.8984 4.8984-7.6523 11.543-7.6523 18.469 0 6.9297 2.7539 13.574 7.6523 18.473 4.8984 4.8984 11.539 7.6484 18.469 7.6484 6.9258 0 13.57-2.75 18.469-7.6484 4.8984-4.8984 7.6523-11.543 7.6523-18.473-0.019531-6.9219-2.7773-13.555-7.6719-18.449s-11.527-7.6523-18.449-7.6719zm0 37.812c-4.7305 0-8.9922-2.8477-10.801-7.2148-1.8125-4.3711-0.80859-9.3984 2.5352-12.742s8.3711-4.3438 12.738-2.5352c4.3711 1.8086 7.2188 6.0742 7.2188 10.801 0.019532 3.1094-1.207 6.0938-3.4023 8.2891-2.1953 2.1992-5.1836 3.4219-8.2891 3.4023z"/>
    <path d="m283.5 233.11h46.473c2.1953 0.5 4.4961-0.027343 6.2578-1.4297 1.7617-1.4062 2.7852-3.5352 2.7852-5.7852s-1.0234-4.3789-2.7852-5.7852c-1.7617-1.4023-4.0625-1.9297-6.2578-1.4297h-46.473c-2.1953-0.5-4.4961 0.027344-6.2578 1.4297-1.7617 1.4062-2.7852 3.5352-2.7852 5.7852s1.0234 4.3789 2.7852 5.7852c1.7617 1.4023 4.0625 1.9297 6.2578 1.4297z"/>
    <path d="m415.66 250.72h-132.16c-4.0859 0-7.3984 3.3164-7.3984 7.4023s3.3125 7.3984 7.3984 7.3984h132.16c4.0859 0 7.3984-3.3125 7.3984-7.3984s-3.3125-7.4023-7.3984-7.4023z"/>
    <path d="m237.04 519.11c-6.9297 0-13.57 2.75-18.469 7.6484-4.8984 4.8984-7.6523 11.543-7.6523 18.473 0 6.9258 2.7539 13.57 7.6523 18.469 4.8984 4.8984 11.539 7.6523 18.469 7.6523 6.9258 0 13.57-2.7539 18.469-7.6523 4.8984-4.8984 7.6523-11.543 7.6523-18.469-0.019531-6.9219-2.7773-13.555-7.6719-18.449-4.8945-4.8945-11.527-7.6523-18.449-7.6719zm0 37.738c-6.0781-0.48437-10.762-5.5586-10.762-11.656 0-6.0977 4.6836-11.168 10.762-11.652 3.25-0.26172 6.4648 0.85156 8.8594 3.0625 2.3984 2.2148 3.7617 5.3281 3.7617 8.5898 0 3.2617-1.3633 6.375-3.7617 8.5898-2.3945 2.2148-5.6094 3.3242-8.8594 3.0664z"/>
    <path d="m283.5 536.43h46.473c4.0859 0 7.3984-3.3125 7.3984-7.3984 0-4.0859-3.3125-7.3984-7.3984-7.3984h-46.473c-4.0859 0-7.3984 3.3125-7.3984 7.3984 0 4.0859 3.3125 7.3984 7.3984 7.3984z"/>
    <path d="m283.5 568.39h132.16c2.1953 0.5 4.5-0.027343 6.2578-1.4297 1.7617-1.4062 2.7852-3.5352 2.7852-5.7852 0-2.2539-1.0234-4.3828-2.7852-5.7852-1.7578-1.4023-4.0625-1.9297-6.2578-1.4297h-132.16c-2.1953-0.5-4.4961 0.027344-6.2578 1.4297-1.7617 1.4023-2.7852 3.5312-2.7852 5.7852 0 2.25 1.0234 4.3789 2.7852 5.7852 1.7617 1.4023 4.0625 1.9297 6.2578 1.4297z"/>
  </g>
</svg>