<svg xmlns="http://www.w3.org/2000/svg" width="752pt" height="752pt" version="1.1" viewBox="0 0 752 752">
  <g fill="#61c9ef">
    <path d="m571 259-108.64-110.73c-2.0898-1.3945-3.4805-2.0898-4.875-2.0898h-271.61c-4.1797 0-6.9648 2.7852-6.9648 6.9648v445.72c0 4.1797 2.7852 6.9648 6.9648 6.9648h380.26c4.1797 0 6.9648-2.7852 6.9648-6.9648v-334.99c0-1.3945-0.69531-3.4844-2.0898-4.875zm-107.25-89.145 85.664 87.055h-85.664zm-270.92 422.04v-431.79h257.68v103.77c0 4.1797 2.7852 6.9648 6.9648 6.9648h102.38v321.06z"/>
    <path d="m243.68 351.62h106.55c6.9648 22.285 28.555 39 53.625 39 30.645 0 56.41-25.07 56.41-56.41 0-30.645-25.07-56.41-56.41-56.41-6.2695 0-11.84 0.69531-17.41 2.7852-9.0547-9.75-21.59-15.32-35.52-15.32h-9.75c14.625-8.3555 25.07-23.68 25.07-41.785 0-26.465-21.59-47.359-47.359-47.359-26.465 0-47.359 21.59-47.359 47.359 0 18.109 10.445 34.125 25.07 41.785h-10.445c-27.16 0-48.75 22.285-48.75 48.75v29.945c-0.6875 4.1797 2.793 7.6602 6.2734 7.6602zm41.789-127.45c0-18.805 15.32-33.43 33.43-33.43 18.805 0 33.43 15.32 33.43 33.43 0 18.805-15.32 33.43-33.43 33.43s-33.43-15.32-33.43-33.43zm160.18 110.04c0 22.984-18.805 42.484-42.484 42.484-22.984 0-42.484-18.805-42.484-42.484 0-22.984 18.805-42.484 42.484-42.484 23.68 0 42.484 19.5 42.484 42.484zm-195-19.5c0-19.5 16.02-34.82 34.82-34.82h65.465c8.3555 0 15.32 2.7852 21.59 7.6602-15.32 9.75-25.77 27.16-25.77 46.66v3.4805h-96.105z"/>
    <path d="m373.91 334.21 11.84 19.5c1.3945 2.0898 2.7852 2.7852 4.875 3.4805 2.0898 0 4.1797 0 5.5703-1.3945l35.52-29.945c2.7852-2.7852 3.4805-6.9648 0.69531-9.75-2.7852-2.7852-6.9648-3.4805-9.75-0.69531l-29.25 24.375-7.6602-12.535c-2.0898-3.4805-6.2695-4.1797-9.75-2.0898-2.7852 1.3945-4.1758 5.5742-2.0898 9.0547z"/>
    <path fill="#fff" d="m254.82 381.57c-25.07 0-45.965 20.895-45.965 45.965 0 25.07 20.895 45.965 45.965 45.965 25.07 0 45.965-20.895 45.965-45.965 0-25.074-20.895-45.965-45.965-45.965zm0 78c-17.41 0-32.035-13.93-32.035-32.035 0-17.41 14.625-32.035 32.035-32.035 17.41 0 32.035 14.625 32.035 32.035 0 18.105-14.625 32.035-32.035 32.035z"/>
    <path fill="#fff" d="m268.75 411.52-21.59 18.109-4.875-8.3555c-2.0898-3.4805-6.2695-4.1797-9.75-2.0898-3.4805 2.0898-4.1797 6.2695-2.0898 9.75l9.0547 15.32c1.3945 2.0898 2.7852 2.7852 4.875 3.4805 2.0898 0 4.1797 0 5.5703-1.3945l27.859-23.68c2.7852-2.7852 3.4805-6.9648 0.69531-9.75-2.0898-3.4805-6.2695-3.4805-9.75-1.3906z"/>
    <path fill="#fff" d="m254.82 483.95c-25.07 0-45.965 20.895-45.965 45.965 0 25.07 20.895 45.965 45.965 45.965 25.07 0 45.965-20.895 45.965-45.965 0-25.07-20.895-45.965-45.965-45.965zm0 78.004c-17.41 0-32.035-14.625-32.035-32.035 0-17.41 14.625-32.035 32.035-32.035 17.41 0 32.035 14.625 32.035 32.035 0 17.41-14.625 32.035-32.035 32.035z"/>
    <path fill="#fff" d="m268.75 513.9-21.59 18.109-4.875-8.3555c-2.0898-3.4805-6.2695-4.1797-9.75-2.0898-3.4805 2.0898-4.1797 6.2695-2.0898 9.75l9.0547 15.32c2.0898 3.4805 6.9648 4.1797 10.445 2.0898l27.859-23.68c2.7852-2.7852 3.4805-6.9648 0.69531-9.75-2.0898-3.4844-6.2695-4.1836-9.75-1.3945z"/>
    <path d="m520.16 407.34h-193.61c-4.1797 0-6.9648 2.7852-6.9648 6.9648 0 4.1797 2.7852 6.9648 6.9648 6.9648h193.61c4.1797 0 6.9648-2.7852 6.9648-6.9648 0-3.4805-3.4805-6.9648-6.9648-6.9648z"/>
    <path d="m520.16 473.5h-193.61c-4.1797 0-6.9648 2.7852-6.9648 6.9648s2.7852 6.9648 6.9648 6.9648h193.61c4.1797 0 6.9648-2.7852 6.9648-6.9648s-3.4805-6.9648-6.9648-6.9648z"/>
    <path d="m520.16 538.97h-193.61c-4.1797 0-6.9648 2.7852-6.9648 6.9648 0 4.1797 2.7852 6.9648 6.9648 6.9648h193.61c4.1797 0 6.9648-2.7852 6.9648-6.9648 0-3.4805-3.4805-6.9648-6.9648-6.9648z"/>
  </g>
</svg>