<svg xmlns:dc="http://purl.org/dc/elements/1.1/" xmlns:cc="http://creativecommons.org/ns#" xmlns:rdf="http://www.w3.org/1999/02/22-rdf-syntax-ns#" xmlns:svg="http://www.w3.org/2000/svg" xmlns="http://www.w3.org/2000/svg" xml:space="preserve" id="svg2" version="1.1" viewBox="15.42 74.8 161.16 42.39"><metadata id="metadata8"><rdf:RDF><cc:Work rdf:about=""><dc:format>image/svg+xml</dc:format><dc:type rdf:resource="http://purl.org/dc/dcmitype/StillImage"/></cc:Work></rdf:RDF></metadata><defs id="defs6"/><g transform="matrix(1.3333333,0,0,-1.3333333,0,192)" id="g10"><g id="g12"><path id="path14" style="fill:#ffffff;fill-opacity:1;fill-rule:evenodd;stroke:none" d="M 28.1687,74.2771 V 63.3107 L 23.5259,62.2273 V 56.103 l 10.8113,2.6751 -0.0221,23.2373 -10.8114,-2.6311 0.0664,-6.1464 z"/><path id="path16" style="fill:#ffffff;fill-opacity:1;fill-rule:evenodd;stroke:none" d="m 11.5645,79.3621 3.1618,0.6633 0.199,-19.788 6.5885,1.5477 -0.0442,26.1113 -9.9051,-2.2771 z"/></g><path id="path18" style="fill:#ffffff;fill-opacity:1;fill-rule:nonzero;stroke:none" d="m 46.6637,72.095 v 9.3608 h 4.2885 c 1.0003,0 1.7728,-0.2168 2.317,-0.6505 0.5446,-0.4337 0.8167,-1.027 0.8167,-1.7793 0,-0.4958 -0.1239,-0.9227 -0.3719,-1.2813 -0.2478,-0.3586 -0.593,-0.6262 -1.0355,-0.8033 0.5309,-0.1506 0.9405,-0.4162 1.228,-0.7966 0.2877,-0.3807 0.4317,-0.8498 0.4317,-1.4077 0,-0.8319 -0.29,-1.4802 -0.8697,-1.9451 -0.58,-0.4646 -1.37,-0.697 -2.37,-0.697 z m 1.9649,5.5102 h 1.9653 c 1.0091,0 1.5137,0.3895 1.5137,1.1685 0,0.7701 -0.5046,1.1551 -1.5137,1.1551 h -1.9653 z m 0,-3.9832 h 2.1909 c 0.5312,0 0.9207,0.1017 1.1685,0.3053 0.2477,0.2035 0.3716,0.5133 0.3716,0.9295 0,0.407 -0.1239,0.7126 -0.3716,0.9161 -0.2478,0.2035 -0.6373,0.3053 -1.1685,0.3053 h -2.1909 z"/><path id="path20" style="fill:#ffffff;fill-opacity:1;fill-rule:nonzero;stroke:none" d="m 58.6877,72.095 v 4.2222 l -3.6117,5.1386 h 2.3902 l 2.2836,-3.293 2.2839,3.293 h 2.2972 l -3.585,-5.1517 V 72.095 Z"/><path id="path22" style="fill:#ffffff;fill-opacity:1;fill-rule:nonzero;stroke:none" d="m 68.0698,72.095 v 7.6612 H 64.976 v 1.6996 h 8.2454 V 79.7562 H 70.1277 V 72.095 Z"/><path id="path24" style="fill:#ffffff;fill-opacity:1;fill-rule:nonzero;stroke:none" d="m 74.969,72.095 v 9.3608 h 6.4134 v -1.6067 h -4.4481 v -2.1909 h 4.1558 v -1.6197 h -4.1558 v -2.3369 h 4.4481 V 72.095 Z"/><path id="path26" style="fill:#ffffff;fill-opacity:1;fill-rule:nonzero;stroke:none" d="m 88.0824,71.949 c -0.9207,0 -1.7283,0.2012 -2.4234,0.604 -0.6947,0.4028 -1.2347,0.965 -1.6197,1.6864 -0.3852,0.7214 -0.5777,1.5689 -0.5777,2.5426 0,0.9737 0.1925,1.8213 0.5777,2.5427 0.385,0.7214 0.9227,1.2813 1.6132,1.6796 0.6905,0.3985 1.5004,0.5975 2.4299,0.5975 0.9294,0 1.7416,-0.199 2.4363,-0.5975 0.6948,-0.3983 1.2348,-0.9582 1.62,-1.6796 0.385,-0.7214 0.5775,-1.5647 0.5775,-2.5293 0,-0.9737 -0.1925,-1.8236 -0.5775,-2.5495 -0.3852,-0.7257 -0.9252,-1.2901 -1.62,-1.6929 -0.6947,-0.4028 -1.5069,-0.604 -2.4363,-0.604 z m 0,1.7526 c 0.7789,0 1.3875,0.2722 1.8255,0.8164 0.4382,0.5446 0.6573,1.2991 0.6573,2.264 0,0.9737 -0.2168,1.7283 -0.6505,2.2638 -0.4337,0.5357 -1.0446,0.8033 -1.8323,0.8033 -0.7702,0 -1.3743,-0.2676 -1.8125,-0.8033 -0.4382,-0.5355 -0.6574,-1.2901 -0.6574,-2.2638 0,-0.9649 0.2192,-1.7194 0.6574,-2.264 0.4382,-0.5442 1.0423,-0.8164 1.8125,-0.8164"/><path id="path28" style="fill:#ffffff;fill-opacity:1;fill-rule:nonzero;stroke:none" d="m 95.0477,72.095 v 9.3608 h 2.0579 v -7.6215 h 4.3285 V 72.095 Z"/><path id="path30" style="fill:#ffffff;fill-opacity:1;fill-rule:nonzero;stroke:none" d="m 107.2179,71.949 c -0.9207,0 -1.7283,0.2012 -2.4233,0.604 -0.6948,0.4028 -1.2348,0.965 -1.6197,1.6864 -0.3853,0.7214 -0.5777,1.5689 -0.5777,2.5426 0,0.9737 0.1924,1.8213 0.5777,2.5427 0.3849,0.7214 0.9226,1.2813 1.6132,1.6796 0.6905,0.3985 1.5003,0.5975 2.4298,0.5975 0.9295,0 1.7416,-0.199 2.4364,-0.5975 0.6948,-0.3983 1.2348,-0.9582 1.62,-1.6796 0.3849,-0.7214 0.5774,-1.5647 0.5774,-2.5293 0,-0.9737 -0.1925,-1.8236 -0.5774,-2.5495 -0.3852,-0.7257 -0.9252,-1.2901 -1.62,-1.6929 -0.6948,-0.4028 -1.5069,-0.604 -2.4364,-0.604 z m 0,1.7526 c 0.779,0 1.3876,0.2722 1.8255,0.8164 0.4383,0.5446 0.6574,1.2991 0.6574,2.264 0,0.9737 -0.2169,1.7283 -0.6506,2.2638 -0.4337,0.5357 -1.0445,0.8033 -1.8323,0.8033 -0.7702,0 -1.3742,-0.2676 -1.8125,-0.8033 -0.4382,-0.5355 -0.6573,-1.2901 -0.6573,-2.2638 0,-0.9649 0.2191,-1.7194 0.6573,-2.264 0.4383,-0.5442 1.0423,-0.8164 1.8125,-0.8164"/><path id="path32" style="fill:#ffffff;fill-opacity:1;fill-rule:nonzero;stroke:none" d="m 118.817,71.949 c -1.0533,0 -1.9451,0.199 -2.6753,0.5975 -0.7302,0.3983 -1.2858,0.9559 -1.6665,1.673 -0.3807,0.7169 -0.5709,1.5579 -0.5709,2.5226 0,0.9915 0.197,1.8502 0.5907,2.5761 0.394,0.7257 0.9627,1.2878 1.7065,1.6861 0.7435,0.3985 1.6376,0.5975 2.6818,0.5975 0.6551,0 1.277,-0.093 1.8658,-0.2789 0.5885,-0.1857 1.0687,-0.4337 1.4406,-0.7436 l -0.6639,-1.6064 c -0.4073,0.3008 -0.8232,0.5157 -1.2481,0.6438 -0.4249,0.1284 -0.8853,0.1927 -1.381,0.1927 -0.9471,0 -1.6575,-0.2633 -2.1311,-0.79 -0.4734,-0.5266 -0.7104,-1.2858 -0.7104,-2.2773 0,-1.0001 0.2412,-1.7569 0.7237,-2.2703 0.4825,-0.5136 1.1974,-0.7702 2.1444,-0.7702 0.5046,0 1.0358,0.0797 1.5934,0.239 v 1.8323 h -2.0183 V 77.26 h 3.7179 v -4.5941 c -0.4603,-0.2302 -0.9915,-0.4071 -1.5933,-0.531 -0.6021,-0.1241 -1.2039,-0.1859 -1.806,-0.1859"/><path id="path34" style="fill:#ffffff;fill-opacity:1;fill-rule:nonzero;stroke:none" d="m 126.7914,72.095 v 4.2222 l -3.6116,5.1386 h 2.3902 l 2.2836,-3.293 2.2838,3.293 h 2.2972 l -3.5849,-5.1517 V 72.095 Z"/><path id="path36" style="fill:#ffffff;fill-opacity:1;fill-rule:nonzero;stroke:none" d="m 46.9585,62.4101 c -0.0831,0 -0.1497,0.0187 -0.1996,0.0561 -0.0499,0.0375 -0.0788,0.0873 -0.087,0.1497 -0.0085,0.0621 0.0039,0.133 0.0371,0.2118 l 1.6889,3.789 c 0.0417,0.0998 0.0947,0.1704 0.1593,0.2118 0.0643,0.0416 0.1361,0.0623 0.2149,0.0623 0.0748,0 0.1445,-0.0207 0.2089,-0.0623 0.0643,-0.0414 0.1173,-0.112 0.159,-0.2118 l 1.6889,-3.789 c 0.0371,-0.0788 0.0519,-0.1506 0.0434,-0.2149 -0.0083,-0.0646 -0.0352,-0.1142 -0.0808,-0.1497 -0.046,-0.0354 -0.1103,-0.053 -0.1934,-0.053 -0.0912,0 -0.1641,0.023 -0.2179,0.0686 -0.0542,0.0456 -0.1018,0.1162 -0.1435,0.2118 l -0.4362,1.0097 0.2928,-0.1747 h -2.6549 l 0.2865,0.1747 -0.43,-1.0097 C 47.2533,62.591 47.2076,62.5192 47.1577,62.4756 47.1078,62.4319 47.0415,62.4101 46.9585,62.4101 Z m 1.8011,3.7205 -0.9411,-2.2309 -0.1559,0.1494 h 2.2002 l -0.1434,-0.1494 -0.9473,2.2309 z"/><path id="path38" style="fill:#ffffff;fill-opacity:1;fill-rule:nonzero;stroke:none" d="m 55.1727,62.4101 c -0.0955,0 -0.1692,0.0269 -0.2211,0.0811 -0.0522,0.0538 -0.078,0.1287 -0.078,0.2242 v 3.8701 c 0,0.0998 0.027,0.1755 0.0811,0.2277 0.0539,0.0518 0.1267,0.0776 0.218,0.0776 0.0873,0 0.1548,-0.0156 0.2027,-0.0467 0.0476,-0.0309 0.0924,-0.0862 0.1338,-0.165 l 1.6327,-3.0475 h -0.193 l 1.6265,3.0475 c 0.0414,0.0788 0.085,0.1341 0.131,0.165 0.0456,0.0311 0.1122,0.0467 0.1995,0.0467 0.0913,0 0.1622,-0.0258 0.2121,-0.0776 0.0496,-0.0522 0.0745,-0.1279 0.0745,-0.2277 v -3.8701 c 0,-0.0955 -0.0238,-0.1704 -0.0714,-0.2242 -0.0479,-0.0542 -0.1197,-0.0811 -0.2152,-0.0811 -0.0955,0 -0.1686,0.0269 -0.2182,0.0811 -0.0499,0.0538 -0.0749,0.1287 -0.0749,0.2242 v 3.2159 h 0.1369 l -1.4456,-2.6736 c -0.0332,-0.0624 -0.0686,-0.108 -0.1061,-0.1372 -0.0374,-0.0289 -0.0892,-0.0437 -0.1556,-0.0437 -0.0666,0 -0.1207,0.0156 -0.1621,0.0468 -0.0417,0.0312 -0.0791,0.076 -0.1123,0.1341 l -1.4581,2.6798 h 0.1494 v -3.2221 c 0,-0.0955 -0.0238,-0.1704 -0.0715,-0.2242 -0.0479,-0.0542 -0.1196,-0.0811 -0.2151,-0.0811"/><path id="path40" style="fill:#ffffff;fill-opacity:1;fill-rule:nonzero;stroke:none" d="m 62.9566,62.3976 c -0.4152,0 -0.7778,0.0924 -1.0873,0.2773 -0.3096,0.1851 -0.5485,0.4467 -0.7166,0.7854 -0.1684,0.3385 -0.2526,0.7362 -0.2526,1.1934 0,0.3447 0.0479,0.6554 0.1434,0.9315 0.0956,0.2764 0.2328,0.5134 0.4113,0.7106 0.1786,0.1973 0.3946,0.3479 0.648,0.4519 0.2535,0.1037 0.5381,0.1556 0.8538,0.1556 0.4198,0 0.7832,-0.0913 1.0911,-0.2741 0.3073,-0.1828 0.5451,-0.4425 0.7135,-0.779 0.1681,-0.3364 0.2522,-0.7333 0.2522,-1.1902 0,-0.345 -0.0476,-0.6565 -0.1431,-0.9349 -0.0958,-0.2784 -0.2339,-0.5173 -0.4144,-0.7166 -0.1809,-0.1996 -0.398,-0.3512 -0.6517,-0.455 -0.2534,-0.104 -0.536,-0.1559 -0.8476,-0.1559 z m 0,0.561 c 0.2909,0 0.5392,0.0663 0.7447,0.1993 0.2061,0.1329 0.364,0.3263 0.4739,0.5797 0.1103,0.2534 0.1653,0.5587 0.1653,0.9161 0,0.5358 -0.1205,0.9513 -0.3614,1.2464 -0.2412,0.2948 -0.582,0.4425 -1.0225,0.4425 -0.2908,0 -0.5391,-0.0655 -0.7446,-0.1964 -0.2058,-0.131 -0.3634,-0.3229 -0.4737,-0.5766 -0.11,-0.2534 -0.165,-0.5587 -0.165,-0.9159 0,-0.5317 0.1213,-0.9473 0.3646,-1.2464 0.2429,-0.2993 0.5825,-0.4487 1.0187,-0.4487"/><path id="path42" style="fill:#ffffff;fill-opacity:1;fill-rule:nonzero;stroke:none" d="m 67.0139,62.4101 c -0.0956,0 -0.1693,0.0269 -0.2211,0.0811 -0.0522,0.0538 -0.078,0.1287 -0.078,0.2242 v 3.8701 c 0,0.0998 0.0269,0.1755 0.0811,0.2277 0.0538,0.0518 0.1267,0.0776 0.218,0.0776 0.0873,0 0.1547,-0.0156 0.2026,-0.0467 0.0477,-0.0309 0.0924,-0.0862 0.1338,-0.165 l 1.6328,-3.0475 H 68.79 l 1.6269,3.0475 c 0.0413,0.0788 0.085,0.1341 0.1309,0.165 0.0456,0.0311 0.112,0.0467 0.1993,0.0467 0.0913,0 0.1621,-0.0258 0.212,-0.0776 0.0496,-0.0522 0.0746,-0.1279 0.0746,-0.2277 v -3.8701 c 0,-0.0955 -0.0238,-0.1704 -0.0715,-0.2242 -0.0479,-0.0542 -0.1196,-0.0811 -0.2151,-0.0811 -0.0955,0 -0.1684,0.0269 -0.218,0.0811 -0.0499,0.0538 -0.0748,0.1287 -0.0748,0.2242 v 3.2159 h 0.1369 l -1.4457,-2.6736 c -0.0332,-0.0624 -0.0686,-0.108 -0.106,-0.1372 -0.0374,-0.0289 -0.0896,-0.0437 -0.1559,-0.0437 -0.0666,0 -0.1208,0.0156 -0.1622,0.0468 -0.0416,0.0312 -0.079,0.076 -0.1122,0.1341 l -1.4581,2.6798 h 0.1493 v -3.2221 c 0,-0.0955 -0.0238,-0.1704 -0.0714,-0.2242 -0.0479,-0.0542 -0.1196,-0.0811 -0.2151,-0.0811"/><path id="path44" style="fill:#ffffff;fill-opacity:1;fill-rule:nonzero;stroke:none" d="m 73.2399,62.4538 c -0.1123,0 -0.1985,0.03 -0.2585,0.0904 -0.0604,0.0601 -0.0905,0.1463 -0.0905,0.2585 v 3.6955 c 0,0.1123 0.0301,0.1985 0.0905,0.2588 0.06,0.0601 0.1462,0.0902 0.2585,0.0902 h 2.2748 c 0.0873,0 0.1539,-0.0218 0.1995,-0.0652 0.0457,-0.0437 0.0686,-0.1072 0.0686,-0.1902 0,-0.0873 -0.0229,-0.1537 -0.0686,-0.1993 -0.0456,-0.0459 -0.1122,-0.0686 -0.1995,-0.0686 H 73.514 v -1.3773 h 1.8638 c 0.0912,0 0.1587,-0.023 0.2024,-0.0686 0.0436,-0.0457 0.0654,-0.11 0.0654,-0.1931 0,-0.0873 -0.0218,-0.1528 -0.0654,-0.1964 C 75.5365,64.4448 75.469,64.423 75.3778,64.423 H 73.514 v -1.4457 h 2.0007 c 0.0873,0 0.1539,-0.0229 0.1995,-0.0686 0.0457,-0.0456 0.0686,-0.11 0.0686,-0.1933 0,-0.087 -0.0229,-0.1525 -0.0686,-0.1962 -0.0456,-0.0436 -0.1122,-0.0654 -0.1995,-0.0654 z"/><path id="path46" style="fill:#ffffff;fill-opacity:1;fill-rule:nonzero;stroke:none" d="m 77.6897,62.4101 c -0.0955,0 -0.1704,0.0269 -0.2242,0.0811 -0.0542,0.0538 -0.0811,0.1309 -0.0811,0.2304 v 3.8452 c 0,0.1041 0.0258,0.184 0.078,0.2401 0.0518,0.0559 0.1213,0.0839 0.2086,0.0839 0.0748,0 0.1318,-0.0133 0.1715,-0.0405 0.0394,-0.0269 0.0862,-0.0757 0.14,-0.1463 l 2.5679,-3.384 h -0.1556 v 3.2655 c 0,0.0956 0.0258,0.1704 0.0777,0.2245 0.0521,0.0539 0.1258,0.0808 0.2214,0.0808 0.0997,0 0.1743,-0.0269 0.2242,-0.0808 0.0499,-0.0541 0.0748,-0.1289 0.0748,-0.2245 v -3.8701 c 0,-0.0955 -0.0238,-0.1704 -0.0717,-0.2242 -0.0476,-0.0542 -0.1111,-0.0811 -0.1899,-0.0811 -0.0749,0 -0.1361,0.0145 -0.184,0.0437 -0.0476,0.0292 -0.0986,0.0788 -0.1525,0.1496 l -2.5554,3.3778 h 0.1431 v -3.2596 c 0,-0.0995 -0.0249,-0.1766 -0.0745,-0.2304 -0.0499,-0.0542 -0.1228,-0.0811 -0.2183,-0.0811"/><path id="path48" style="fill:#ffffff;fill-opacity:1;fill-rule:nonzero;stroke:none" d="m 84.2335,62.4101 c -0.1038,0 -0.1837,0.0292 -0.2398,0.0873 -0.0562,0.0581 -0.0842,0.1392 -0.0842,0.2429 v 3.5649 h -1.3212 c -0.0871,0 -0.1557,0.0238 -0.2056,0.0717 -0.0498,0.0476 -0.0748,0.1151 -0.0748,0.2024 0,0.0873 0.025,0.1536 0.0748,0.1996 0.0499,0.0456 0.1185,0.0683 0.2056,0.0683 h 3.2845 c 0.0915,0 0.1621,-0.0227 0.212,-0.0683 0.0499,-0.046 0.0748,-0.1123 0.0748,-0.1996 0,-0.0873 -0.0249,-0.1548 -0.0748,-0.2024 -0.0499,-0.0479 -0.1205,-0.0717 -0.212,-0.0717 h -1.321 v -3.5649 c 0,-0.1037 -0.0261,-0.1848 -0.0779,-0.2429 -0.0519,-0.0581 -0.1321,-0.0873 -0.2404,-0.0873"/><path id="path50" style="fill:#ffffff;fill-opacity:1;fill-rule:nonzero;stroke:none" d="m 91.8434,62.3976 c -0.4153,0 -0.7779,0.0924 -1.0874,0.2773 -0.3095,0.1851 -0.5485,0.4467 -0.7166,0.7854 -0.1684,0.3385 -0.2526,0.7362 -0.2526,1.1934 0,0.3447 0.0479,0.6554 0.1435,0.9315 0.0955,0.2764 0.2327,0.5134 0.4113,0.7106 0.1786,0.1973 0.3946,0.3479 0.648,0.4519 0.2534,0.1037 0.538,0.1556 0.8538,0.1556 0.4198,0 0.7832,-0.0913 1.0907,-0.2741 0.3073,-0.1828 0.5451,-0.4425 0.7135,-0.779 0.1681,-0.3364 0.2523,-0.7333 0.2523,-1.1902 0,-0.345 -0.0476,-0.6565 -0.1431,-0.9349 -0.0959,-0.2784 -0.2339,-0.5173 -0.4145,-0.7166 -0.1808,-0.1996 -0.398,-0.3512 -0.6514,-0.455 -0.2534,-0.104 -0.536,-0.1559 -0.8475,-0.1559 z m 0,0.561 c 0.2908,0 0.5391,0.0663 0.7446,0.1993 0.2058,0.1329 0.3637,0.3263 0.4737,0.5797 0.1103,0.2534 0.1653,0.5587 0.1653,0.9161 0,0.5358 -0.1205,0.9513 -0.3615,1.2464 -0.2409,0.2948 -0.5816,0.4425 -1.0221,0.4425 -0.2909,0 -0.5392,-0.0655 -0.7447,-0.1964 -0.2058,-0.131 -0.3634,-0.3229 -0.4737,-0.5766 -0.1099,-0.2534 -0.1649,-0.5587 -0.1649,-0.9159 0,-0.5317 0.1213,-0.9473 0.3645,-1.2464 0.2429,-0.2993 0.5825,-0.4487 1.0188,-0.4487"/><path id="path52" style="fill:#ffffff;fill-opacity:1;fill-rule:nonzero;stroke:none" d="m 95.9318,62.4101 c -0.108,0 -0.1922,0.0292 -0.2523,0.0873 -0.0604,0.0581 -0.0904,0.1435 -0.0904,0.2554 v 3.7454 c 0,0.1123 0.03,0.1985 0.0904,0.2588 0.0601,0.0601 0.1463,0.0902 0.2585,0.0902 h 2.2187 c 0.0913,0 0.1587,-0.0218 0.2024,-0.0652 0.0436,-0.0437 0.0655,-0.1072 0.0655,-0.1902 0,-0.0873 -0.0219,-0.1537 -0.0655,-0.1993 -0.0437,-0.0459 -0.1111,-0.0686 -0.2024,-0.0686 h -1.9196 v -1.4023 h 1.7949 c 0.083,0 0.1485,-0.0218 0.1961,-0.0655 0.0479,-0.0436 0.0717,-0.1068 0.0717,-0.1899 0,-0.0873 -0.0238,-0.1539 -0.0717,-0.1996 C 98.1805,64.421 98.115,64.398 98.032,64.398 h -1.7949 v -1.6452 c 0,-0.2285 -0.1018,-0.3427 -0.3053,-0.3427"/><path id="path54" style="fill:#ffffff;fill-opacity:1;fill-rule:nonzero;stroke:none" d="m 103.7968,62.3976 c -0.1911,0 -0.3782,0.0145 -0.5607,0.0437 -0.1828,0.0292 -0.3555,0.0737 -0.5173,0.1341 -0.1622,0.0601 -0.3076,0.1338 -0.4363,0.2211 -0.0623,0.0456 -0.1049,0.0978 -0.1278,0.1559 -0.0227,0.0581 -0.0289,0.1153 -0.0187,0.1712 0.0105,0.0561 0.0343,0.1049 0.0717,0.1465 0.0374,0.0417 0.083,0.0675 0.1372,0.078 0.0538,0.0102 0.1142,-0.0074 0.1805,-0.053 0.1871,-0.1205 0.3844,-0.2089 0.5922,-0.2648 0.2078,-0.0561 0.4343,-0.0842 0.6792,-0.0842 0.3532,0 0.614,0.0633 0.7821,0.19 0.1683,0.1267 0.2528,0.2919 0.2528,0.4955 0,0.1661 -0.0606,0.2982 -0.1811,0.3957 -0.1205,0.0978 -0.322,0.1754 -0.6044,0.2338 l -0.667,0.1369 c -0.3945,0.0831 -0.6885,0.2203 -0.8818,0.4114 -0.1931,0.1913 -0.2897,0.4487 -0.2897,0.7727 0,0.1953 0.0405,0.3742 0.1216,0.536 0.0811,0.1622 0.1942,0.3022 0.3396,0.4207 0.1454,0.1185 0.32,0.2089 0.5235,0.2712 0.2036,0.0621 0.4258,0.0933 0.6667,0.0933 0.2577,0 0.4998,-0.0332 0.726,-0.0995 0.2268,-0.0666 0.4295,-0.1684 0.608,-0.3056 0.0539,-0.0374 0.0905,-0.0842 0.1092,-0.14 0.0187,-0.0561 0.0226,-0.1111 0.0124,-0.1653 -0.0104,-0.0541 -0.0343,-0.0997 -0.0717,-0.1372 -0.0374,-0.0374 -0.0853,-0.0592 -0.1434,-0.0654 -0.0581,-0.006 -0.1225,0.0136 -0.193,0.0592 -0.1625,0.108 -0.3277,0.186 -0.4958,0.2339 -0.1684,0.0476 -0.3544,0.0717 -0.5579,0.0717 -0.2035,0 -0.3812,-0.0312 -0.5329,-0.0936 -0.1517,-0.0623 -0.2679,-0.1496 -0.3489,-0.2619 -0.0811,-0.1119 -0.1214,-0.2449 -0.1214,-0.3988 0,-0.1743 0.0559,-0.3135 0.1681,-0.4176 0.1123,-0.1037 0.2991,-0.1825 0.561,-0.2366 l 0.6605,-0.1372 c 0.4155,-0.0871 0.7254,-0.2223 0.9289,-0.4051 0.2035,-0.1829 0.3053,-0.4258 0.3053,-0.7291 0,-0.1953 -0.0394,-0.3708 -0.1185,-0.5267 -0.0788,-0.1556 -0.1911,-0.2897 -0.3365,-0.4019 -0.1454,-0.112 -0.3211,-0.1984 -0.5267,-0.2585 -0.2058,-0.0604 -0.4373,-0.0905 -0.695,-0.0905"/><path id="path56" style="fill:#ffffff;fill-opacity:1;fill-rule:nonzero;stroke:none" d="m 109.0009,62.3976 c -0.4445,0 -0.8246,0.0916 -1.1404,0.2741 -0.3157,0.1829 -0.5578,0.4437 -0.7259,0.7824 -0.1684,0.3385 -0.2526,0.7384 -0.2526,1.1996 0,0.3447 0.0479,0.6554 0.1434,0.9315 0.0956,0.2764 0.2336,0.5134 0.4145,0.7106 0.1805,0.1973 0.4028,0.3479 0.6667,0.4519 0.2639,0.1037 0.5618,0.1556 0.8943,0.1556 0.2452,0 0.4811,-0.0332 0.7073,-0.0995 0.2267,-0.0666 0.4232,-0.1621 0.5893,-0.2869 0.0706,-0.0456 0.1173,-0.1006 0.1403,-0.1649 0.0227,-0.0647 0.0269,-0.1259 0.0125,-0.184 -0.0148,-0.0581 -0.0428,-0.1069 -0.0842,-0.1466 -0.0417,-0.0394 -0.0947,-0.0612 -0.159,-0.0651 -0.0644,-0.0043 -0.1341,0.0187 -0.2087,0.0683 -0.1375,0.104 -0.2891,0.1808 -0.4552,0.2307 -0.1664,0.0499 -0.3407,0.0748 -0.5236,0.0748 -0.3158,0 -0.5816,-0.0654 -0.7976,-0.1964 -0.216,-0.131 -0.3802,-0.3209 -0.4924,-0.57 -0.1123,-0.2495 -0.1684,-0.5528 -0.1684,-0.91 0,-0.3574 0.0561,-0.6616 0.1684,-0.913 0.1122,-0.2514 0.2764,-0.4425 0.4924,-0.5735 0.216,-0.1306 0.4818,-0.1961 0.7976,-0.1961 0.1829,0 0.3583,0.0258 0.5267,0.0779 0.1681,0.0519 0.3271,0.1299 0.4771,0.2336 0.0745,0.0457 0.1423,0.0666 0.2024,0.0624 0.0603,-0.0043 0.1111,-0.025 0.1528,-0.0624 0.0413,-0.0374 0.0694,-0.0842 0.0841,-0.1403 0.0145,-0.0561 0.0122,-0.1142 -0.006,-0.1743 -0.0187,-0.0604 -0.0592,-0.1111 -0.1216,-0.1528 -0.1704,-0.1372 -0.3719,-0.241 -0.6049,-0.3115 -0.2325,-0.0706 -0.4757,-0.1061 -0.7291,-0.1061"/><path id="path58" style="fill:#ffffff;fill-opacity:1;fill-rule:nonzero;stroke:none" d="m 112.3914,62.4101 c -0.1037,0 -0.1839,0.0292 -0.2398,0.0873 -0.0561,0.0581 -0.0842,0.1392 -0.0842,0.2429 v 3.8203 c 0,0.108 0.0281,0.1902 0.0842,0.2463 0.0559,0.0559 0.1361,0.0839 0.2398,0.0839 0.1038,0 0.184,-0.028 0.2398,-0.0839 0.0562,-0.0561 0.0842,-0.1383 0.0842,-0.2463 v -3.8203 c 0,-0.1037 -0.0269,-0.1848 -0.081,-0.2429 -0.0539,-0.0581 -0.135,-0.0873 -0.243,-0.0873"/><path id="path60" style="fill:#ffffff;fill-opacity:1;fill-rule:nonzero;stroke:none" d="m 114.9092,62.4538 c -0.1123,0 -0.1985,0.03 -0.2586,0.0904 -0.0603,0.0601 -0.0904,0.1463 -0.0904,0.2585 v 3.6955 c 0,0.1123 0.0301,0.1985 0.0904,0.2588 0.0601,0.0601 0.1463,0.0902 0.2586,0.0902 h 2.2748 c 0.0873,0 0.1539,-0.0218 0.1995,-0.0652 0.0457,-0.0437 0.0686,-0.1072 0.0686,-0.1902 0,-0.0873 -0.0229,-0.1537 -0.0686,-0.1993 -0.0456,-0.0459 -0.1122,-0.0686 -0.1995,-0.0686 h -2.0004 v -1.3773 h 1.8635 c 0.0912,0 0.1587,-0.023 0.2023,-0.0686 0.0437,-0.0457 0.0655,-0.11 0.0655,-0.1931 0,-0.0873 -0.0218,-0.1528 -0.0655,-0.1964 -0.0436,-0.0437 -0.1111,-0.0655 -0.2023,-0.0655 h -1.8635 v -1.4457 h 2.0004 c 0.0873,0 0.1539,-0.0229 0.1995,-0.0686 0.0457,-0.0456 0.0686,-0.11 0.0686,-0.1933 0,-0.087 -0.0229,-0.1525 -0.0686,-0.1962 -0.0456,-0.0436 -0.1122,-0.0654 -0.1995,-0.0654 z"/><path id="path62" style="fill:#ffffff;fill-opacity:1;fill-rule:nonzero;stroke:none" d="m 119.359,62.4101 c -0.0955,0 -0.1704,0.0269 -0.2242,0.0811 -0.0542,0.0538 -0.0811,0.1309 -0.0811,0.2304 v 3.8452 c 0,0.1041 0.0258,0.184 0.078,0.2401 0.0518,0.0559 0.1213,0.0839 0.2086,0.0839 0.0748,0 0.1318,-0.0133 0.1715,-0.0405 0.0394,-0.0269 0.0862,-0.0757 0.14,-0.1463 l 2.5679,-3.384 h -0.1556 v 3.2655 c 0,0.0956 0.0258,0.1704 0.0777,0.2245 0.0521,0.0539 0.1258,0.0808 0.2213,0.0808 0.0998,0 0.1744,-0.0269 0.2243,-0.0808 0.0499,-0.0541 0.0748,-0.1289 0.0748,-0.2245 v -3.8701 c 0,-0.0955 -0.0238,-0.1704 -0.0717,-0.2242 -0.0476,-0.0542 -0.1111,-0.0811 -0.1899,-0.0811 -0.0749,0 -0.1361,0.0145 -0.184,0.0437 -0.0476,0.0292 -0.0986,0.0788 -0.1525,0.1496 l -2.5554,3.3778 h 0.1431 v -3.2596 c 0,-0.0995 -0.0249,-0.1766 -0.0745,-0.2304 -0.0499,-0.0542 -0.1228,-0.0811 -0.2183,-0.0811"/><path id="path64" style="fill:#ffffff;fill-opacity:1;fill-rule:nonzero;stroke:none" d="m 126.4765,62.3976 c -0.4445,0 -0.8246,0.0916 -1.1404,0.2741 -0.316,0.1829 -0.5581,0.4437 -0.7262,0.7824 -0.1684,0.3385 -0.2526,0.7384 -0.2526,1.1996 0,0.3447 0.0479,0.6554 0.1435,0.9315 0.0955,0.2764 0.2335,0.5134 0.4144,0.7106 0.1805,0.1973 0.4031,0.3479 0.667,0.4519 0.2639,0.1037 0.5618,0.1556 0.8943,0.1556 0.2452,0 0.481,-0.0332 0.7072,-0.0995 0.2265,-0.0666 0.423,-0.1621 0.5891,-0.2869 0.0706,-0.0456 0.1173,-0.1006 0.1403,-0.1649 0.0227,-0.0647 0.0269,-0.1259 0.0125,-0.184 -0.0148,-0.0581 -0.0428,-0.1069 -0.0842,-0.1466 -0.0417,-0.0394 -0.0947,-0.0612 -0.159,-0.0651 -0.0644,-0.0043 -0.1341,0.0187 -0.2087,0.0683 -0.1372,0.104 -0.2888,0.1808 -0.4549,0.2307 -0.1664,0.0499 -0.3408,0.0748 -0.5236,0.0748 -0.3158,0 -0.5817,-0.0654 -0.7977,-0.1964 -0.216,-0.131 -0.3801,-0.3209 -0.4926,-0.57 -0.1123,-0.2495 -0.1684,-0.5528 -0.1684,-0.91 0,-0.3574 0.0561,-0.6616 0.1684,-0.913 0.1125,-0.2514 0.2766,-0.4425 0.4926,-0.5735 0.216,-0.1306 0.4819,-0.1961 0.7977,-0.1961 0.1828,0 0.3583,0.0258 0.5267,0.0779 0.1681,0.0519 0.3271,0.1299 0.4768,0.2336 0.0745,0.0457 0.1423,0.0666 0.2024,0.0624 0.0603,-0.0043 0.1111,-0.025 0.1528,-0.0624 0.0413,-0.0374 0.0694,-0.0842 0.0841,-0.1403 0.0145,-0.0561 0.0122,-0.1142 -0.006,-0.1743 -0.0187,-0.0604 -0.0592,-0.1111 -0.1216,-0.1528 -0.1704,-0.1372 -0.3719,-0.241 -0.6046,-0.3115 -0.2325,-0.0706 -0.4757,-0.1061 -0.7291,-0.1061"/><path id="path66" style="fill:#ffffff;fill-opacity:1;fill-rule:nonzero;stroke:none" d="m 129.8917,62.4538 c -0.1123,0 -0.1984,0.03 -0.2585,0.0904 -0.0604,0.0601 -0.0905,0.1463 -0.0905,0.2585 v 3.6955 c 0,0.1123 0.0301,0.1985 0.0905,0.2588 0.0601,0.0601 0.1462,0.0902 0.2585,0.0902 h 2.2748 c 0.0873,0 0.1539,-0.0218 0.1995,-0.0652 0.0457,-0.0437 0.0686,-0.1072 0.0686,-0.1902 0,-0.0873 -0.0229,-0.1537 -0.0686,-0.1993 -0.0456,-0.0459 -0.1122,-0.0686 -0.1995,-0.0686 h -2.0007 v -1.3773 h 1.8638 c 0.0913,0 0.1587,-0.023 0.2024,-0.0686 0.0436,-0.0457 0.0654,-0.11 0.0654,-0.1931 0,-0.0873 -0.0218,-0.1528 -0.0654,-0.1964 -0.0437,-0.0437 -0.1111,-0.0655 -0.2024,-0.0655 h -1.8638 v -1.4457 h 2.0007 c 0.0873,0 0.1539,-0.0229 0.1995,-0.0686 0.0457,-0.0456 0.0686,-0.11 0.0686,-0.1933 0,-0.087 -0.0229,-0.1525 -0.0686,-0.1962 -0.0456,-0.0436 -0.1122,-0.0654 -0.1995,-0.0654 z"/></g></svg>