<svg xmlns:dc="http://purl.org/dc/elements/1.1/" xmlns:cc="http://creativecommons.org/ns#" xmlns:rdf="http://www.w3.org/1999/02/22-rdf-syntax-ns#" xmlns:svg="http://www.w3.org/2000/svg" xmlns="http://www.w3.org/2000/svg" xml:space="preserve" id="svg2" version="1.1" viewBox="18.94 38.4 154.11 116.59"><metadata id="metadata8"><rdf:RDF><cc:Work rdf:about=""><dc:format>image/svg+xml</dc:format><dc:type rdf:resource="http://purl.org/dc/dcmitype/StillImage"/></cc:Work></rdf:RDF></metadata><defs id="defs6"/><g transform="matrix(1.3333333,0,0,-1.3333333,0,191.9996)" id="g10"><g id="g12"><g id="g14"><path id="path16" style="fill:#ffffff;fill-opacity:1;fill-rule:evenodd;stroke:none" d="M 79.0311,96.8471 V 82.0695 l -6.2567,-1.4598 v -8.2528 l 14.569,3.6048 -0.0298,31.3132 -14.5692,-3.5456 0.0896,-8.2825 z"/><path id="path18" style="fill:#ffffff;fill-opacity:1;fill-rule:evenodd;stroke:none" d="m 56.6561,103.6996 4.2604,0.8937 0.2682,-26.6652 8.8784,2.0857 -0.0595,35.1859 -13.3475,-3.0685 z"/></g><path id="path20" style="fill:#ffffff;fill-opacity:1;fill-rule:nonzero;stroke:none" d="m 14.2081,40.8263 v 12.6141 h 5.7793 c 1.3478,0 2.3884,-0.2922 3.122,-0.8767 0.7337,-0.5845 1.1005,-1.3836 1.1005,-2.3976 0,-0.6678 -0.167,-1.2435 -0.5009,-1.7265 -0.3339,-0.4831 -0.7994,-0.8439 -1.3958,-1.0826 0.7157,-0.2027 1.2674,-0.5607 1.6551,-1.0735 0.3878,-0.513 0.5817,-1.1452 0.5817,-1.8966 0,-1.1214 -0.3909,-1.9951 -1.1721,-2.6212 -0.7812,-0.6262 -1.8459,-0.9394 -3.1938,-0.9394 z m 2.6478,7.4253 h 2.6482 c 1.36,0 2.0398,0.525 2.0398,1.5747 0,1.0377 -0.6798,1.5565 -2.0398,1.5565 h -2.6482 z m 0,-5.3677 h 2.9523 c 0.7158,0 1.2407,0.1372 1.5747,0.4116 0.3339,0.2744 0.5011,0.6917 0.5011,1.2524 0,0.5488 -0.1672,0.9604 -0.5011,1.2347 -0.334,0.2742 -0.8589,0.4114 -1.5747,0.4114 h -2.9523 z"/><path id="path22" style="fill:#ffffff;fill-opacity:1;fill-rule:nonzero;stroke:none" d="m 30.4118,40.8263 v 5.6897 l -4.8668,6.9244 h 3.2207 l 3.0773,-4.4373 3.0776,4.4373 h 3.0954 l -4.8308,-6.9423 v -5.6718 z"/><path id="path24" style="fill:#ffffff;fill-opacity:1;fill-rule:nonzero;stroke:none" d="m 43.0549,40.8263 v 10.324 H 38.886 v 2.2901 h 11.1112 v -2.2901 h -4.1689 v -10.324 z"/><path id="path26" style="fill:#ffffff;fill-opacity:1;fill-rule:nonzero;stroke:none" d="m 52.3519,40.8263 v 12.6141 h 8.642 v -2.1648 h -5.9941 v -2.9523 h 5.6004 v -2.1829 h -5.6004 v -3.149 h 5.9941 v -2.1651 z"/><path id="path28" style="fill:#ffffff;fill-opacity:1;fill-rule:nonzero;stroke:none" d="m 70.0228,40.6295 c -1.2404,0 -2.3289,0.2713 -3.2652,0.8142 -0.9366,0.5425 -1.6642,1.2999 -2.183,2.2722 -0.519,0.9723 -0.7786,2.1144 -0.7786,3.4265 0,1.3122 0.2596,2.4543 0.7786,3.4263 0.5188,0.9722 1.2436,1.7268 2.1739,2.2634 0.9304,0.5369 2.022,0.8053 3.2743,0.8053 1.2527,0 2.3471,-0.2684 3.2834,-0.8053 0.9363,-0.5366 1.6639,-1.2912 2.183,-2.2634 0.5187,-0.972 0.7781,-2.1082 0.7781,-3.4084 0,-1.3122 -0.2594,-2.4574 -0.7781,-3.4353 -0.5191,-0.9783 -1.2467,-1.7388 -2.183,-2.2813 -0.9363,-0.5429 -2.0307,-0.8142 -3.2834,-0.8142 z m 0,2.3619 c 1.0497,0 1.8698,0.3668 2.4602,1.1004 0.5905,0.7336 0.8859,1.7504 0.8859,3.0506 0,1.3122 -0.2923,2.329 -0.8768,3.0507 -0.5845,0.7217 -1.4077,1.0825 -2.4693,1.0825 -1.0377,0 -1.8518,-0.3608 -2.4423,-1.0825 -0.5905,-0.7217 -0.8855,-1.7385 -0.8855,-3.0507 0,-1.3002 0.295,-2.317 0.8855,-3.0506 0.5905,-0.7336 1.4046,-1.1004 2.4423,-1.1004"/><path id="path30" style="fill:#ffffff;fill-opacity:1;fill-rule:nonzero;stroke:none" d="m 79.4095,40.8263 v 12.6141 h 2.7731 V 43.1702 h 5.8331 v -2.3439 z"/><path id="path32" style="fill:#ffffff;fill-opacity:1;fill-rule:nonzero;stroke:none" d="m 95.8099,40.6295 c -1.2405,0 -2.329,0.2713 -3.2652,0.8142 -0.9366,0.5425 -1.6643,1.2999 -2.183,2.2722 -0.519,0.9723 -0.7784,2.1144 -0.7784,3.4265 0,1.3122 0.2594,2.4543 0.7784,3.4263 0.5187,0.9722 1.2436,1.7268 2.1739,2.2634 0.9303,0.5369 2.0219,0.8053 3.2743,0.8053 1.2526,0 2.3471,-0.2684 3.2834,-0.8053 0.9362,-0.5366 1.6639,-1.2912 2.1829,-2.2634 0.5188,-0.972 0.7781,-2.1082 0.7781,-3.4084 0,-1.3122 -0.2593,-2.4574 -0.7781,-3.4353 -0.519,-0.9783 -1.2467,-1.7388 -2.1829,-2.2813 -0.9363,-0.5429 -2.0308,-0.8142 -3.2834,-0.8142 z m 0,2.3619 c 1.0497,0 1.8697,0.3668 2.4602,1.1004 0.5904,0.7336 0.8858,1.7504 0.8858,3.0506 0,1.3122 -0.2922,2.329 -0.8768,3.0507 -0.5845,0.7217 -1.4076,1.0825 -2.4692,1.0825 -1.0378,0 -1.8519,-0.3608 -2.4423,-1.0825 -0.5905,-0.7217 -0.8856,-1.7385 -0.8856,-3.0507 0,-1.3002 0.2951,-2.317 0.8856,-3.0506 0.5904,-0.7336 1.4045,-1.1004 2.4423,-1.1004"/><path id="path34" style="fill:#ffffff;fill-opacity:1;fill-rule:nonzero;stroke:none" d="m 111.441,40.6295 c -1.4196,0 -2.6212,0.2682 -3.6054,0.8051 -0.9842,0.5369 -1.7325,1.2883 -2.2456,2.2544 -0.5128,0.9663 -0.7693,2.0996 -0.7693,3.3996 0,1.3359 0.2653,2.493 0.7962,3.4713 0.5309,0.9779 1.2971,1.7356 2.2992,2.2722 1.002,0.5369 2.2068,0.8053 3.6142,0.8053 0.8827,0 1.7209,-0.1252 2.514,-0.3758 0.7931,-0.2506 1.4403,-0.5845 1.9415,-1.0021 l -0.8947,-2.1648 c -0.5487,0.4054 -1.1094,0.6948 -1.682,0.8677 -0.5726,0.1729 -1.1928,0.2594 -1.8607,0.2594 -1.2764,0 -2.2337,-0.3549 -2.8718,-1.0644 -0.6383,-0.7098 -0.9572,-1.7329 -0.9572,-3.0688 0,-1.3479 0.3248,-2.3678 0.9751,-3.0595 0.65,-0.6919 1.6132,-1.0377 2.8896,-1.0377 0.6798,0 1.3955,0.1071 2.147,0.322 v 2.4692 h -2.7196 v 2.0039 h 5.01 v -6.1909 c -0.6202,-0.3101 -1.336,-0.5488 -2.1473,-0.7158 -0.811,-0.1669 -1.6222,-0.2503 -2.4332,-0.2503"/><path id="path36" style="fill:#ffffff;fill-opacity:1;fill-rule:nonzero;stroke:none" d="m 122.1874,40.8263 v 5.6897 l -4.8668,6.9244 h 3.2207 l 3.0773,-4.4373 3.0776,4.4373 h 3.0954 l -4.8308,-6.9423 v -5.6718 z"/><path id="path38" style="fill:#ffffff;fill-opacity:1;fill-rule:nonzero;stroke:none" d="m 14.6055,27.7756 c -0.112,0 -0.2015,0.0249 -0.2687,0.0754 -0.0672,0.0504 -0.1063,0.1176 -0.1177,0.2015 -0.011,0.0842 0.0057,0.1792 0.0505,0.2857 l 2.2759,5.1061 c 0.0559,0.1343 0.1273,0.2296 0.2141,0.2854 0.0867,0.0562 0.1834,0.0839 0.2897,0.0839 0.1009,0 0.1947,-0.0277 0.2814,-0.0839 0.0868,-0.0558 0.1582,-0.1511 0.2141,-0.2854 l 2.2762,-5.1061 c 0.0504,-0.1065 0.07,-0.2029 0.0589,-0.2899 -0.0113,-0.0868 -0.0476,-0.154 -0.1091,-0.2016 -0.0618,-0.0473 -0.1485,-0.0711 -0.2605,-0.0711 -0.123,0 -0.2211,0.0306 -0.294,0.0924 -0.0728,0.0615 -0.1372,0.1567 -0.193,0.2854 l -0.5879,1.3604 0.3946,-0.235 h -3.5779 l 0.3864,0.235 -0.5794,-1.3604 c -0.0562,-0.1343 -0.1177,-0.231 -0.1849,-0.2897 -0.0671,-0.0589 -0.1567,-0.0881 -0.2687,-0.0881 z m 2.427,5.0136 -1.2682,-3.0067 -0.2097,0.2018 h 2.9647 l -0.193,-0.2018 -1.277,3.0067 z"/><path id="path40" style="fill:#ffffff;fill-opacity:1;fill-rule:nonzero;stroke:none" d="m 25.6748,27.7756 c -0.129,0 -0.2282,0.0362 -0.2982,0.1091 -0.07,0.0728 -0.1049,0.1735 -0.1049,0.3022 v 5.2154 c 0,0.1344 0.0363,0.2364 0.1092,0.3065 0.0728,0.07 0.1706,0.1048 0.2939,0.1048 0.1176,0 0.2086,-0.0209 0.273,-0.0629 0.0643,-0.0419 0.1244,-0.1162 0.1805,-0.2225 l 2.2006,-4.1066 h -0.2605 l 2.192,4.1066 c 0.0561,0.1063 0.1148,0.1806 0.1763,0.2225 0.0618,0.042 0.1514,0.0629 0.2687,0.0629 0.1234,0 0.2186,-0.0348 0.2858,-0.1048 0.0672,-0.0701 0.1006,-0.1721 0.1006,-0.3065 v -5.2154 c 0,-0.1287 -0.032,-0.2294 -0.0967,-0.3022 -0.0643,-0.0729 -0.1607,-0.1091 -0.2897,-0.1091 -0.1286,0 -0.2267,0.0362 -0.2939,0.1091 -0.0672,0.0728 -0.1006,0.1735 -0.1006,0.3022 v 4.3336 h 0.1848 l -1.9486,-3.6029 c -0.0447,-0.0839 -0.0924,-0.1457 -0.1425,-0.1848 -0.0505,-0.0391 -0.1205,-0.0587 -0.2101,-0.0587 -0.0896,0 -0.1624,0.021 -0.2182,0.063 -0.0565,0.0419 -0.1069,0.102 -0.1517,0.1805 l -1.965,3.6111 h 0.2016 v -4.3418 c 0,-0.1287 -0.0323,-0.2294 -0.0967,-0.3022 -0.0643,-0.0729 -0.161,-0.1091 -0.2897,-0.1091"/><path id="path42" style="fill:#ffffff;fill-opacity:1;fill-rule:nonzero;stroke:none" d="m 36.1644,27.7586 c -0.5598,0 -1.0482,0.1247 -1.4655,0.3738 -0.417,0.2492 -0.739,0.6018 -0.9658,1.0582 -0.2267,0.4561 -0.3401,0.9924 -0.3401,1.6081 0,0.4649 0.0646,0.8833 0.1933,1.2558 0.1287,0.3721 0.3135,0.6913 0.5542,0.9572 0.2406,0.2659 0.532,0.4689 0.8733,0.6089 0.3416,0.14 0.7251,0.21 1.1506,0.21 0.5655,0 1.0553,-0.1233 1.4698,-0.3696 0.4147,-0.2463 0.735,-0.5961 0.9618,-1.0497 0.2267,-0.4535 0.3401,-0.9881 0.3401,-1.6041 0,-0.4646 -0.0643,-0.8847 -0.193,-1.2597 -0.129,-0.375 -0.3149,-0.697 -0.5584,-0.9658 -0.2438,-0.2687 -0.5366,-0.4731 -0.8779,-0.6131 -0.3416,-0.14 -0.7223,-0.21 -1.1424,-0.21 z m 0,0.756 c 0.392,0 0.7265,0.0895 1.0038,0.2687 0.2769,0.1791 0.4898,0.4393 0.6383,0.7809 0.1486,0.3416 0.2225,0.7532 0.2225,1.2345 0,0.7223 -0.1621,1.2821 -0.4872,1.6798 -0.3246,0.3974 -0.7838,0.5961 -1.3774,0.5961 -0.3917,0 -0.7262,-0.0881 -1.0035,-0.2644 -0.2772,-0.1763 -0.4898,-0.4354 -0.6383,-0.7767 -0.1483,-0.3416 -0.2225,-0.7532 -0.2225,-1.2348 0,-0.7166 0.1638,-1.2764 0.4912,-1.6795 0.3277,-0.4031 0.7852,-0.6046 1.3731,-0.6046"/><path id="path44" style="fill:#ffffff;fill-opacity:1;fill-rule:nonzero;stroke:none" d="m 41.6322,27.7756 c -0.129,0 -0.2282,0.0362 -0.2982,0.1091 -0.0701,0.0728 -0.1049,0.1735 -0.1049,0.3022 v 5.2154 c 0,0.1344 0.0363,0.2364 0.1091,0.3065 0.0729,0.07 0.1707,0.1048 0.294,0.1048 0.1176,0 0.2086,-0.0209 0.2729,-0.0629 0.0644,-0.0419 0.1245,-0.1162 0.1806,-0.2225 l 2.2003,-4.1066 h -0.2606 l 2.1921,4.1066 c 0.0561,0.1063 0.1148,0.1806 0.1763,0.2225 0.0618,0.042 0.1514,0.0629 0.2687,0.0629 0.1233,0 0.2186,-0.0348 0.2858,-0.1048 0.0671,-0.0701 0.1006,-0.1721 0.1006,-0.3065 v -5.2154 c 0,-0.1287 -0.032,-0.2294 -0.0967,-0.3022 -0.0643,-0.0729 -0.1607,-0.1091 -0.2897,-0.1091 -0.1287,0 -0.2268,0.0362 -0.2939,0.1091 -0.0672,0.0728 -0.1007,0.1735 -0.1007,0.3022 v 4.3336 h 0.1849 l -1.9486,-3.6029 c -0.0448,-0.0839 -0.0924,-0.1457 -0.1426,-0.1848 -0.0504,-0.0391 -0.1204,-0.0587 -0.21,-0.0587 -0.0896,0 -0.1624,0.021 -0.2183,0.063 -0.0561,0.0419 -0.1066,0.102 -0.1513,0.1805 l -1.965,3.6111 h 0.2015 v -4.3418 c 0,-0.1287 -0.0323,-0.2294 -0.0966,-0.3022 -0.0644,-0.0729 -0.161,-0.1091 -0.2897,-0.1091"/><path id="path46" style="fill:#ffffff;fill-opacity:1;fill-rule:nonzero;stroke:none" d="m 50.0224,27.8342 c -0.1513,0 -0.2676,0.0406 -0.3486,0.1219 -0.0811,0.0811 -0.1219,0.1973 -0.1219,0.3484 v 4.9802 c 0,0.1511 0.0408,0.2673 0.1219,0.3484 0.081,0.0813 0.1973,0.1219 0.3486,0.1219 h 3.0651 c 0.1177,0 0.2072,-0.0295 0.2688,-0.0882 0.0617,-0.0587 0.0924,-0.1443 0.0924,-0.2562 0,-0.1174 -0.0307,-0.207 -0.0924,-0.2688 -0.0616,-0.0615 -0.1511,-0.0924 -0.2688,-0.0924 h -2.6957 v -1.8558 h 2.5112 c 0.123,0 0.214,-0.0309 0.2727,-0.0924 0.0589,-0.0615 0.0884,-0.1486 0.0884,-0.2605 0,-0.1174 -0.0295,-0.2056 -0.0884,-0.2645 C 53.117,30.5175 53.026,30.488 52.903,30.488 h -2.5112 v -1.9482 h 2.6957 c 0.1177,0 0.2072,-0.0309 0.2688,-0.0924 0.0617,-0.0615 0.0924,-0.1486 0.0924,-0.2605 0,-0.1174 -0.0307,-0.2058 -0.0924,-0.2645 -0.0616,-0.0587 -0.1511,-0.0882 -0.2688,-0.0882 z"/><path id="path48" style="fill:#ffffff;fill-opacity:1;fill-rule:nonzero;stroke:none" d="m 56.0186,27.7756 c -0.1287,0 -0.2297,0.0362 -0.3022,0.1091 -0.0729,0.0728 -0.1094,0.1763 -0.1094,0.3107 v 5.1817 c 0,0.14 0.0351,0.2478 0.1051,0.3232 0.07,0.0756 0.1636,0.1133 0.2812,0.1133 0.1009,0 0.1778,-0.0181 0.231,-0.0544 0.0533,-0.0366 0.1163,-0.1023 0.1891,-0.1973 l 3.4603,-4.5604 h -0.2101 v 4.4008 c 0,0.1287 0.0352,0.2296 0.1052,0.3022 0.0697,0.0729 0.1692,0.1091 0.2979,0.1091 0.1344,0 0.2353,-0.0362 0.3025,-0.1091 0.0671,-0.0726 0.1006,-0.1735 0.1006,-0.3022 v -5.2154 c 0,-0.1287 -0.032,-0.2294 -0.0964,-0.3022 -0.0643,-0.0729 -0.1499,-0.1091 -0.2562,-0.1091 -0.1007,0 -0.1834,0.0195 -0.2478,0.0586 -0.0643,0.0392 -0.1329,0.1063 -0.2058,0.2016 l -3.4435,4.5519 h 0.1933 v -4.3923 c 0,-0.1344 -0.0337,-0.2379 -0.1009,-0.3107 -0.0672,-0.0729 -0.1653,-0.1091 -0.2939,-0.1091"/><path id="path50" style="fill:#ffffff;fill-opacity:1;fill-rule:nonzero;stroke:none" d="m 64.8371,27.7756 c -0.14,0 -0.2477,0.0391 -0.3234,0.1173 -0.0754,0.0785 -0.1134,0.1877 -0.1134,0.3277 v 4.8036 h -1.7804 c -0.1174,0 -0.2098,0.0323 -0.277,0.0967 -0.0672,0.0643 -0.1009,0.1553 -0.1009,0.2729 0,0.1177 0.0337,0.2072 0.1009,0.2688 0.0672,0.0615 0.1596,0.0924 0.277,0.0924 h 4.426 c 0.1233,0 0.2185,-0.0309 0.2857,-0.0924 0.0672,-0.0616 0.1009,-0.1511 0.1009,-0.2688 0,-0.1176 -0.0337,-0.2086 -0.1009,-0.2729 -0.0672,-0.0644 -0.1624,-0.0967 -0.2857,-0.0967 h -1.7805 v -4.8036 c 0,-0.14 -0.0351,-0.2492 -0.1048,-0.3277 -0.07,-0.0782 -0.178,-0.1173 -0.3235,-0.1173"/><path id="path52" style="fill:#ffffff;fill-opacity:1;fill-rule:nonzero;stroke:none" d="m 75.0917,27.7586 c -0.5598,0 -1.0482,0.1247 -1.4655,0.3738 -0.4169,0.2492 -0.739,0.6018 -0.9657,1.0582 -0.2268,0.4561 -0.3402,0.9924 -0.3402,1.6081 0,0.4649 0.0646,0.8833 0.1933,1.2558 0.1287,0.3721 0.3135,0.6913 0.5542,0.9572 0.2407,0.2659 0.5321,0.4689 0.8734,0.6089 0.3415,0.14 0.7251,0.21 1.1505,0.21 0.5656,0 1.0554,-0.1233 1.4698,-0.3696 0.4147,-0.2463 0.735,-0.5961 0.9618,-1.0497 0.2268,-0.4535 0.3402,-0.9881 0.3402,-1.6041 0,-0.4646 -0.0644,-0.8847 -0.1931,-1.2597 -0.129,-0.375 -0.3149,-0.697 -0.5584,-0.9658 -0.2441,-0.2687 -0.5366,-0.4731 -0.8779,-0.6131 -0.3416,-0.14 -0.7223,-0.21 -1.1424,-0.21 z m 0,0.756 c 0.3921,0 0.7266,0.0895 1.0038,0.2687 0.2769,0.1791 0.4898,0.4393 0.6381,0.7809 0.1485,0.3416 0.2228,0.7532 0.2228,1.2345 0,0.7223 -0.1624,1.2821 -0.4873,1.6798 -0.3246,0.3974 -0.7838,0.5961 -1.3774,0.5961 -0.3917,0 -0.7262,-0.0881 -1.0034,-0.2644 -0.2772,-0.1763 -0.4898,-0.4354 -0.6384,-0.7767 -0.1482,-0.3416 -0.2225,-0.7532 -0.2225,-1.2348 0,-0.7166 0.1638,-1.2764 0.4912,-1.6795 0.3277,-0.4031 0.7852,-0.6046 1.3731,-0.6046"/><path id="path54" style="fill:#ffffff;fill-opacity:1;fill-rule:nonzero;stroke:none" d="m 80.6014,27.7756 c -0.1457,0 -0.259,0.0391 -0.3401,0.1173 -0.0811,0.0785 -0.1219,0.1933 -0.1219,0.3444 v 5.0474 c 0,0.1511 0.0408,0.2673 0.1219,0.3484 0.0811,0.0813 0.1973,0.1219 0.3487,0.1219 h 2.9897 c 0.123,0 0.214,-0.0295 0.2729,-0.0882 0.0587,-0.0587 0.0882,-0.1443 0.0882,-0.2562 0,-0.1174 -0.0295,-0.207 -0.0882,-0.2688 -0.0589,-0.0615 -0.1499,-0.0924 -0.2729,-0.0924 H 81.013 v -1.8896 h 2.4186 c 0.1119,0 0.2001,-0.0292 0.2644,-0.0881 0.0647,-0.0587 0.0967,-0.144 0.0967,-0.256 0,-0.1176 -0.032,-0.2072 -0.0967,-0.2687 -0.0643,-0.0618 -0.1525,-0.0924 -0.2644,-0.0924 H 81.013 v -2.2173 c 0,-0.3078 -0.1372,-0.4617 -0.4116,-0.4617"/><path id="path56" style="fill:#ffffff;fill-opacity:1;fill-rule:nonzero;stroke:none" d="m 91.2005,27.7586 c -0.2577,0 -0.5097,0.0195 -0.756,0.0589 -0.2464,0.0391 -0.4785,0.0992 -0.6971,0.1806 -0.2182,0.081 -0.4141,0.1805 -0.5879,0.2979 -0.0839,0.0618 -0.1411,0.1318 -0.172,0.21 -0.0309,0.0786 -0.0392,0.1554 -0.0253,0.2311 0.0142,0.0757 0.0462,0.1414 0.0967,0.1973 0.0505,0.0561 0.112,0.091 0.1848,0.1048 0.0726,0.0142 0.1539,-0.0096 0.2435,-0.0711 0.252,-0.1624 0.5179,-0.2815 0.7977,-0.3572 0.28,-0.0754 0.5851,-0.1131 0.9156,-0.1131 0.4759,0 0.8271,0.0853 1.0539,0.256 0.2268,0.1709 0.3402,0.3934 0.3402,0.6678 0,0.224 -0.0814,0.4017 -0.2435,0.5332 -0.1625,0.1316 -0.434,0.2364 -0.8147,0.315 l -0.8986,0.1848 c -0.5321,0.112 -0.9281,0.2965 -1.1883,0.5542 -0.2605,0.2576 -0.3906,0.6046 -0.3906,1.0414 0,0.2631 0.0544,0.5037 0.1638,0.7223 0.1092,0.2182 0.2617,0.4073 0.4576,0.5669 0.1961,0.1593 0.4311,0.2812 0.7055,0.3651 0.2744,0.0842 0.5737,0.1261 0.8986,0.1261 0.3472,0 0.6732,-0.0447 0.9785,-0.1343 0.305,-0.0896 0.578,-0.2268 0.8186,-0.4116 0.0729,-0.0505 0.1219,-0.1134 0.1472,-0.1891 0.0252,-0.0754 0.0306,-0.1496 0.0167,-0.2225 -0.0139,-0.0728 -0.0462,-0.1344 -0.0967,-0.1848 -0.0504,-0.0502 -0.1148,-0.0797 -0.193,-0.0882 -0.0785,-0.0082 -0.1653,0.0185 -0.2605,0.08 -0.2183,0.1454 -0.4408,0.2505 -0.6676,0.3149 -0.2267,0.0643 -0.4773,0.0967 -0.7517,0.0967 -0.2741,0 -0.5137,-0.0423 -0.718,-0.1262 -0.2044,-0.0839 -0.3612,-0.2015 -0.4703,-0.3526 -0.1091,-0.1514 -0.1639,-0.3305 -0.1639,-0.5375 0,-0.2352 0.0757,-0.4229 0.2268,-0.5626 0.1514,-0.1401 0.4031,-0.2464 0.756,-0.3192 l 0.8901,-0.1848 c 0.5598,-0.1177 0.9771,-0.2997 1.2515,-0.546 0.2744,-0.2463 0.4113,-0.5737 0.4113,-0.9825 0,-0.263 -0.053,-0.4997 -0.1593,-0.7098 -0.1066,-0.2097 -0.2577,-0.3903 -0.4535,-0.5417 -0.1962,-0.1511 -0.4326,-0.2673 -0.7098,-0.3484 -0.2773,-0.081 -0.5894,-0.1218 -0.9363,-0.1218"/><path id="path58" style="fill:#ffffff;fill-opacity:1;fill-rule:nonzero;stroke:none" d="m 98.2134,27.7586 c -0.5993,0 -1.1115,0.1233 -1.537,0.3696 -0.4257,0.2463 -0.752,0.5975 -0.9788,1.0539 -0.2267,0.4564 -0.3401,0.9953 -0.3401,1.6166 0,0.4649 0.0646,0.8833 0.1933,1.2558 0.1287,0.3721 0.3149,0.6913 0.5584,0.9572 0.2435,0.2659 0.5434,0.4689 0.8989,0.6089 0.3555,0.14 0.7571,0.21 1.2053,0.21 0.3302,0 0.648,-0.0447 0.953,-0.1343 0.3053,-0.0896 0.5698,-0.2186 0.7937,-0.3864 0.0952,-0.0615 0.1582,-0.1358 0.1891,-0.2225 0.0306,-0.0867 0.0362,-0.1695 0.0167,-0.2477 -0.0196,-0.0786 -0.0576,-0.1443 -0.1134,-0.1976 -0.0561,-0.053 -0.1273,-0.0825 -0.2143,-0.0882 -0.0867,-0.0054 -0.1806,0.0252 -0.2812,0.0924 -0.1848,0.1401 -0.3892,0.2435 -0.6131,0.3107 -0.224,0.0672 -0.4592,0.1009 -0.7056,0.1009 -0.4254,0 -0.7837,-0.0881 -1.0749,-0.2645 -0.2911,-0.1763 -0.5122,-0.4325 -0.6633,-0.7684 -0.1516,-0.3359 -0.227,-0.7447 -0.227,-1.2263 0,-0.4813 0.0754,-0.8915 0.227,-1.2302 0.1511,-0.3388 0.3722,-0.5964 0.6633,-0.7728 0.2912,-0.1763 0.6495,-0.2644 1.0749,-0.2644 0.2464,0 0.4831,0.0348 0.7098,0.1049 0.2268,0.07 0.4408,0.1751 0.6424,0.3149 0.1009,0.0618 0.1919,0.0896 0.2729,0.0842 0.0814,-0.0057 0.15,-0.0338 0.2058,-0.0842 0.0562,-0.0502 0.0939,-0.1134 0.1134,-0.1888 0.0196,-0.0757 0.0167,-0.1539 -0.008,-0.2353 -0.0249,-0.081 -0.0796,-0.1496 -0.1635,-0.2058 -0.2297,-0.1845 -0.5012,-0.3245 -0.8147,-0.4198 -0.3135,-0.0952 -0.6412,-0.1428 -0.9825,-0.1428"/><path id="path60" style="fill:#ffffff;fill-opacity:1;fill-rule:nonzero;stroke:none" d="m 102.782,27.7756 c -0.14,0 -0.2478,0.0391 -0.3234,0.1173 -0.0755,0.0785 -0.1134,0.1877 -0.1134,0.3277 v 5.148 c 0,0.1457 0.0379,0.2563 0.1134,0.3317 0.0756,0.0756 0.1834,0.1133 0.3234,0.1133 0.14,0 0.2477,-0.0377 0.3234,-0.1133 0.0754,-0.0754 0.1134,-0.186 0.1134,-0.3317 v -5.148 c 0,-0.14 -0.0366,-0.2492 -0.1094,-0.3277 -0.0726,-0.0782 -0.1817,-0.1173 -0.3274,-0.1173"/><path id="path62" style="fill:#ffffff;fill-opacity:1;fill-rule:nonzero;stroke:none" d="m 106.1751,27.8342 c -0.1514,0 -0.2676,0.0406 -0.3487,0.1219 -0.0811,0.0811 -0.1219,0.1973 -0.1219,0.3484 v 4.9802 c 0,0.1511 0.0408,0.2673 0.1219,0.3484 0.0811,0.0813 0.1973,0.1219 0.3487,0.1219 h 3.0653 c 0.1177,0 0.2073,-0.0295 0.2688,-0.0882 0.0618,-0.0587 0.0924,-0.1443 0.0924,-0.2562 0,-0.1174 -0.0306,-0.207 -0.0924,-0.2688 -0.0615,-0.0615 -0.1511,-0.0924 -0.2688,-0.0924 h -2.6957 v -1.8558 h 2.5112 c 0.123,0 0.214,-0.0309 0.2727,-0.0924 0.059,-0.0615 0.0884,-0.1486 0.0884,-0.2605 0,-0.1174 -0.0294,-0.2056 -0.0884,-0.2645 -0.0587,-0.0587 -0.1497,-0.0882 -0.2727,-0.0882 h -2.5112 v -1.9482 h 2.6957 c 0.1177,0 0.2073,-0.0309 0.2688,-0.0924 0.0618,-0.0615 0.0924,-0.1486 0.0924,-0.2605 0,-0.1174 -0.0306,-0.2058 -0.0924,-0.2645 -0.0615,-0.0587 -0.1511,-0.0882 -0.2688,-0.0882 z"/><path id="path64" style="fill:#ffffff;fill-opacity:1;fill-rule:nonzero;stroke:none" d="m 112.1715,27.7756 c -0.1287,0 -0.2296,0.0362 -0.3022,0.1091 -0.0729,0.0728 -0.1094,0.1763 -0.1094,0.3107 v 5.1817 c 0,0.14 0.0351,0.2478 0.1051,0.3232 0.0701,0.0756 0.1636,0.1133 0.2812,0.1133 0.1009,0 0.1778,-0.0181 0.2311,-0.0544 0.0533,-0.0366 0.1162,-0.1023 0.189,-0.1973 l 3.46,-4.5604 h -0.21 v 4.4008 c 0,0.1287 0.0351,0.2296 0.1051,0.3022 0.0697,0.0729 0.1695,0.1091 0.2982,0.1091 0.1344,0 0.2353,-0.0362 0.3025,-0.1091 0.0672,-0.0726 0.1006,-0.1735 0.1006,-0.3022 v -5.2154 c 0,-0.1287 -0.032,-0.2294 -0.0964,-0.3022 -0.0643,-0.0729 -0.1499,-0.1091 -0.2562,-0.1091 -0.1007,0 -0.1834,0.0195 -0.2481,0.0586 -0.0643,0.0392 -0.1329,0.1063 -0.2057,0.2016 l -3.4433,4.5519 h 0.1933 v -4.3923 c 0,-0.1344 -0.0337,-0.2379 -0.1009,-0.3107 -0.0672,-0.0729 -0.1652,-0.1091 -0.2939,-0.1091"/><path id="path66" style="fill:#ffffff;fill-opacity:1;fill-rule:nonzero;stroke:none" d="m 121.7628,27.7586 c -0.5993,0 -1.1115,0.1233 -1.537,0.3696 -0.4255,0.2463 -0.7517,0.5975 -0.9785,1.0539 -0.2268,0.4564 -0.3402,0.9953 -0.3402,1.6166 0,0.4649 0.0647,0.8833 0.1934,1.2558 0.1287,0.3721 0.3149,0.6913 0.5584,0.9572 0.2435,0.2659 0.5431,0.4689 0.8986,0.6089 0.3554,0.14 0.7571,0.21 1.2053,0.21 0.3302,0 0.648,-0.0447 0.953,-0.1343 0.3053,-0.0896 0.5697,-0.2186 0.7937,-0.3864 0.0952,-0.0615 0.1582,-0.1358 0.1891,-0.2225 0.0306,-0.0867 0.0362,-0.1695 0.0167,-0.2477 -0.0196,-0.0786 -0.0576,-0.1443 -0.1134,-0.1976 -0.0561,-0.053 -0.1273,-0.0825 -0.2143,-0.0882 -0.0867,-0.0054 -0.1806,0.0252 -0.2812,0.0924 -0.1848,0.1401 -0.3892,0.2435 -0.6131,0.3107 -0.224,0.0672 -0.4593,0.1009 -0.7056,0.1009 -0.4255,0 -0.7838,-0.0881 -1.0749,-0.2645 -0.2911,-0.1763 -0.5122,-0.4325 -0.6633,-0.7684 -0.1514,-0.3359 -0.2268,-0.7447 -0.2268,-1.2263 0,-0.4813 0.0754,-0.8915 0.2268,-1.2302 0.1511,-0.3388 0.3722,-0.5964 0.6633,-0.7728 0.2911,-0.1763 0.6494,-0.2644 1.0749,-0.2644 0.2463,0 0.483,0.0348 0.7098,0.1049 0.2268,0.07 0.4408,0.1751 0.6423,0.3149 0.101,0.0618 0.1919,0.0896 0.273,0.0842 0.0814,-0.0057 0.15,-0.0338 0.2058,-0.0842 0.0561,-0.0502 0.0938,-0.1134 0.1134,-0.1888 0.0196,-0.0757 0.0167,-0.1539 -0.008,-0.2353 -0.0249,-0.081 -0.0797,-0.1496 -0.1636,-0.2058 -0.2296,-0.1845 -0.5011,-0.3245 -0.8146,-0.4198 -0.3136,-0.0952 -0.6412,-0.1428 -0.9825,-0.1428"/><path id="path68" style="fill:#ffffff;fill-opacity:1;fill-rule:nonzero;stroke:none" d="m 126.3654,27.8342 c -0.1514,0 -0.2676,0.0406 -0.3487,0.1219 -0.081,0.0811 -0.1219,0.1973 -0.1219,0.3484 v 4.9802 c 0,0.1511 0.0409,0.2673 0.1219,0.3484 0.0811,0.0813 0.1973,0.1219 0.3487,0.1219 h 3.0651 c 0.1176,0 0.2072,-0.0295 0.2687,-0.0882 0.0618,-0.0587 0.0924,-0.1443 0.0924,-0.2562 0,-0.1174 -0.0306,-0.207 -0.0924,-0.2688 -0.0615,-0.0615 -0.1511,-0.0924 -0.2687,-0.0924 h -2.6958 v -1.8558 h 2.5113 c 0.123,0 0.214,-0.0309 0.2726,-0.0924 0.059,-0.0615 0.0885,-0.1486 0.0885,-0.2605 0,-0.1174 -0.0295,-0.2056 -0.0885,-0.2645 C 129.46,30.5175 129.369,30.488 129.246,30.488 h -2.5113 v -1.9482 h 2.6958 c 0.1176,0 0.2072,-0.0309 0.2687,-0.0924 0.0618,-0.0615 0.0924,-0.1486 0.0924,-0.2605 0,-0.1174 -0.0306,-0.2058 -0.0924,-0.2645 -0.0615,-0.0587 -0.1511,-0.0882 -0.2687,-0.0882 z"/></g></g></svg>